<svg xmlns="http://www.w3.org/2000/svg" xmlns:xlink="http://www.w3.org/1999/xlink" version="1.1" width="256" height="256" viewBox="0 0 256 256" xml:space="preserve">
<desc>Created with Fabric.js 1.7.22</desc>
<defs>
</defs>
<g transform="translate(128 128) scale(0.72 0.72)" style="">
	<g style="stroke: none; stroke-width: 0; stroke-dasharray: none; stroke-linecap: butt; stroke-linejoin: miter; stroke-miterlimit: 10; fill: none; fill-rule: nonzero; opacity: 1;" transform="translate(-175.05 -175.05000000000004) scale(3.89 3.89)" >
	<rect x="0" y="6.62" rx="0" ry="0" width="5.15" height="4.03" style="stroke: none; stroke-width: 1; stroke-dasharray: none; stroke-linecap: butt; stroke-linejoin: miter; stroke-miterlimit: 10; fill: rgb(86, 116, 180); fill-rule: nonzero; opacity: 1;" transform=" matrix(1 0 0 1 0 0) "/>
	<path d="M 53.745 10.854 l -1.863 3.57 c -1.68 -0.877 -3.445 -1.614 -5.247 -2.19 l 1.227 -3.836 C 49.883 9.046 51.862 9.872 53.745 10.854 z" style="stroke: none; stroke-width: 1; stroke-dasharray: none; stroke-linecap: butt; stroke-linejoin: miter; stroke-miterlimit: 10; fill: rgb(86, 116, 180); fill-rule: nonzero; opacity: 1;" transform=" matrix(1 0 0 1 0 0) " stroke-linecap="round" />
	<path d="M 63.847 18.55 c 6.489 6.96 10.063 16.037 10.063 25.558 v 31.563 l 13.243 -13.243 L 90 65.274 L 71.897 83.378 L 53.793 65.274 l 2.847 -2.847 l 13.244 13.244 V 44.107 c 0 -8.498 -3.19 -16.599 -8.981 -22.811 c -1.291 -1.385 -2.711 -2.671 -4.219 -3.82 l 2.441 -3.202 C 60.812 15.562 62.401 17 63.847 18.55 z" style="stroke: none; stroke-width: 1; stroke-dasharray: none; stroke-linecap: butt; stroke-linejoin: miter; stroke-miterlimit: 10; fill: rgb(86, 116, 180); fill-rule: nonzero; opacity: 1;" transform=" matrix(1 0 0 1 0 0) " stroke-linecap="round" />
	<rect x="11.19" y="6.62" rx="0" ry="0" width="6.04" height="4.03" style="stroke: none; stroke-width: 1; stroke-dasharray: none; stroke-linecap: butt; stroke-linejoin: miter; stroke-miterlimit: 10; fill: rgb(86, 116, 180); fill-rule: nonzero; opacity: 1;" transform=" matrix(1 0 0 1 0 0) "/>
	<path d="M 41.648 6.983 l -0.556 3.987 c -1.537 -0.214 -3.108 -0.322 -4.668 -0.322 h -1.077 V 6.622 h 1.077 C 38.168 6.622 39.926 6.744 41.648 6.983 z" style="stroke: none; stroke-width: 1; stroke-dasharray: none; stroke-linecap: butt; stroke-linejoin: miter; stroke-miterlimit: 10; fill: rgb(86, 116, 180); fill-rule: nonzero; opacity: 1;" transform=" matrix(1 0 0 1 0 0) " stroke-linecap="round" />
	<rect x="23.27" y="6.62" rx="0" ry="0" width="6.04" height="4.03" style="stroke: none; stroke-width: 1; stroke-dasharray: none; stroke-linecap: butt; stroke-linejoin: miter; stroke-miterlimit: 10; fill: rgb(86, 116, 180); fill-rule: nonzero; opacity: 1;" transform=" matrix(1 0 0 1 0 0) "/>
</g>
</g>
</svg>